<svg xmlns="http://www.w3.org/2000/svg" xmlns:xlink="http://www.w3.org/1999/xlink" width="200" height="200" class="icon" p-id="1299" t="1658302974483" version="1.1" viewBox="0 0 1024 1024"><defs><style type="text/css">@font-face{font-family:feedback-iconfont;src:url(//at.alicdn.com/t/font_1031158_u69w8yhxdu.woff2?t=1630033759944) format(&quot;woff2&quot;),url(//at.alicdn.com/t/font_1031158_u69w8yhxdu.woff?t=1630033759944) format(&quot;woff&quot;),url(//at.alicdn.com/t/font_1031158_u69w8yhxdu.ttf?t=1630033759944) format(&quot;truetype&quot;)}</style></defs><path d="M950.8 512q0 89.152-34.848 170.272t-93.728 140-140 93.728-170.272 34.848-170.272-34.848-140-93.728-93.728-140-34.848-170.272q0-104 46.016-196t129.44-154.272q24.576-18.272 54.56-14.272t47.712 28.576q18.272 24 14.016 54.016t-28.288 48.288q-56 42.272-86.56 103.424t-30.56 130.272q0 59.424 23.136 113.44t62.56 93.44 93.44 62.56 113.44 23.136 113.44-23.136 93.44-62.56 62.56-93.44 23.136-113.44q0-69.152-30.56-130.272t-86.56-103.424q-24-18.272-28.288-48.288t14.016-54.016q17.728-24.576 48-28.576t54.272 14.272q83.424 62.272 129.44 154.272t46.016 196zM585.072 73.152l0 365.728q0 29.728-21.728 51.424t-51.424 21.728-51.424-21.728-21.728-51.424l0-365.728q0-29.728 21.728-51.424t51.424-21.728 51.424 21.728 21.728 51.424z" p-id="1300"/></svg>